<svg width="138" height="120" viewBox="0 0 138 120" fill="none" xmlns="http://www.w3.org/2000/svg">
<rect width="138" height="120" fill="white"/>
<path d="M54.6273 62.0259C54.6385 60.6459 54.8441 59.3276 55.2443 58.0707C55.6444 56.8139 56.2387 55.6637 57.0272 54.62C57.8156 53.5763 58.768 52.669 59.8842 51.898C61.0305 51.1272 62.3554 50.5229 63.859 50.085L66.0628 55.818C64.4395 56.2249 63.0836 56.949 61.9951 57.9902C60.9367 59.0317 60.4006 60.4074 60.3868 62.1174C60.3817 62.7474 60.4519 63.3479 60.5973 63.9191C60.7724 64.5206 61.0082 65.0475 61.3045 65.4999C61.6306 65.9825 62.0326 66.3608 62.5104 66.6347C62.9882 66.9085 63.5421 67.048 64.1721 67.0531C64.7721 67.0579 65.3129 66.9573 65.7946 66.7512C66.2763 66.545 66.7291 66.1887 67.1532 65.6821C67.5771 65.2055 67.9873 64.5638 68.3838 63.757C68.7801 62.9801 69.193 62.0084 69.6224 60.8418L70.3583 58.8677C70.6653 58.0002 71.0775 57.1185 71.5947 56.2226C72.1117 55.3568 72.7332 54.5667 73.459 53.8526C74.1848 53.1384 75.0295 52.5452 75.9933 52.073C76.9869 51.631 78.0987 51.4149 79.3287 51.4249C80.5886 51.435 81.7567 51.6845 82.8328 52.1732C83.9386 52.6921 84.8929 53.4048 85.6956 54.3113C86.5281 55.2481 87.1642 56.3482 87.604 57.6118C88.0736 58.9057 88.3021 60.3325 88.2895 61.8925C88.2764 63.5124 88.0402 64.9056 87.5808 66.0719C87.1511 67.2685 86.588 68.269 85.8915 69.0734C85.2247 69.908 84.4843 70.5771 83.6702 71.0805C82.8561 71.584 82.0881 71.9528 81.3662 72.187L79.1595 66.814C80.0619 66.5213 80.8763 65.9728 81.6029 65.1687C82.3291 64.3945 82.6978 63.3174 82.709 61.9375C82.7196 60.6175 82.4135 59.52 81.7905 58.645C81.1975 57.7701 80.4061 57.3287 79.4161 57.3208C78.4561 57.313 77.6278 57.7263 76.931 58.5607C76.2643 59.3954 75.6085 60.7251 74.9638 62.55L74.2725 64.5695C73.8121 65.8558 73.2776 67.0215 72.6692 68.0667C72.0905 69.142 71.3931 70.0514 70.5771 70.7949C69.7608 71.5683 68.8261 72.1458 67.773 72.5273C66.7497 72.9391 65.563 73.1395 64.2131 73.1286C62.5331 73.115 61.081 72.7583 59.8566 72.0584C58.6619 71.3888 57.6789 70.5258 56.9074 69.4695C56.1359 68.4133 55.5604 67.2236 55.1811 65.9005C54.8018 64.5774 54.6172 63.2859 54.6273 62.0259Z" fill="#0D9488"/>
<path d="M72 24.5C92.7513 24.5 109.5 41.1058 109.5 61.5C109.5 81.8942 92.7513 98.5 72 98.5C51.2487 98.5 34.5 81.8942 34.5 61.5C34.5 41.1058 51.2487 24.5 72 24.5Z" stroke="#032826" stroke-width="7"/>
</svg>
