<svg width="300" height="120" viewBox="0 0 300 120" fill="none" xmlns="http://www.w3.org/2000/svg">
<path d="M54.6269 62.026C54.6381 60.646 54.8437 59.3277 55.2439 58.0708C55.644 56.814 56.2383 55.6638 57.0268 54.6201C57.8152 53.5764 58.7676 52.6691 59.8838 51.8981C61.0301 51.1273 62.355 50.523 63.8586 50.0851L66.0624 55.8181C64.4391 56.225 63.0832 56.9491 61.9947 57.9903C60.9363 59.0318 60.4002 60.4075 60.3864 62.1175C60.3813 62.7475 60.4515 63.348 60.5969 63.9192C60.772 64.5207 61.0078 65.0476 61.3041 65.5C61.6302 65.9826 62.0322 66.3609 62.51 66.6348C62.9878 66.9086 63.5417 67.0481 64.1717 67.0532C64.7717 67.058 65.3125 66.9574 65.7942 66.7513C66.2759 66.5451 66.7287 66.1888 67.1528 65.6822C67.5767 65.2056 67.9869 64.5639 68.3834 63.7571C68.7797 62.9802 69.1926 62.0085 69.622 60.8419L70.3579 58.8678C70.6649 58.0003 71.0771 57.1186 71.5943 56.2227C72.1113 55.3569 72.7327 54.5668 73.4585 53.8527C74.1843 53.1385 75.0291 52.5453 75.9929 52.0731C76.9865 51.6311 78.0983 51.415 79.3283 51.425C80.5882 51.4351 81.7563 51.6846 82.8324 52.1733C83.9382 52.6922 84.8925 53.4049 85.6952 54.3114C86.5277 55.2482 87.1638 56.3483 87.6036 57.6119C88.0732 58.9058 88.3017 60.3326 88.2891 61.8926C88.276 63.5125 88.0398 64.9057 87.5804 66.072C87.1507 67.2686 86.5876 68.2691 85.8911 69.0735C85.2243 69.9081 84.4839 70.5772 83.6698 71.0806C82.8557 71.5841 82.0877 71.9529 81.3658 72.1871L79.1591 66.8141C80.0615 66.5214 80.8759 65.9729 81.6025 65.1688C82.3287 64.3946 82.6974 63.3175 82.7086 61.9376C82.7192 60.6176 82.4131 59.5201 81.7901 58.6451C81.1971 57.7702 80.4057 57.3288 79.4157 57.3209C78.4557 57.3131 77.6274 57.7264 76.9306 58.5608C76.2639 59.3955 75.6081 60.7252 74.9634 62.5501L74.2721 64.5696C73.8117 65.8559 73.2772 67.0216 72.6688 68.0668C72.0901 69.1421 71.3927 70.0515 70.5767 70.795C69.7604 71.5684 68.8257 72.1459 67.7726 72.5274C66.7493 72.9392 65.5626 73.1396 64.2127 73.1287C62.5327 73.1151 61.0806 72.7584 59.8562 72.0585C58.6615 71.3889 57.6785 70.5259 56.907 69.4696C56.1355 68.4134 55.56 67.2237 55.1807 65.9006C54.8014 64.5775 54.6168 63.286 54.6269 62.026Z" fill="#0D9488"/>
<path d="M151.567 71.248C151.567 73.68 150.503 75.732 148.375 77.404C146.247 79.076 143.568 79.912 140.338 79.912C137.526 79.912 135.056 79.19 132.928 77.746C130.8 76.264 129.28 74.326 128.368 71.932L133.042 69.937C133.726 71.609 134.714 72.92 136.006 73.87C137.336 74.782 138.78 75.238 140.338 75.238C142.01 75.238 143.397 74.877 144.499 74.155C145.639 73.433 146.209 72.578 146.209 71.59C146.209 69.804 144.841 68.493 142.105 67.657L137.317 66.46C131.883 65.092 129.166 62.47 129.166 58.594C129.166 56.048 130.192 54.015 132.244 52.495C134.334 50.937 136.994 50.158 140.224 50.158C142.694 50.158 144.917 50.747 146.893 51.925C148.907 53.103 150.313 54.68 151.111 56.656L146.437 58.594C145.905 57.416 145.031 56.504 143.815 55.858C142.637 55.174 141.307 54.832 139.825 54.832C138.457 54.832 137.222 55.174 136.12 55.858C135.056 56.542 134.524 57.378 134.524 58.366C134.524 59.962 136.025 61.102 139.027 61.786L143.245 62.869C148.793 64.237 151.567 67.03 151.567 71.248ZM162.636 41.437C162.636 42.463 162.275 43.337 161.553 44.059C160.831 44.781 159.957 45.142 158.931 45.142C157.905 45.142 157.031 44.781 156.309 44.059C155.587 43.337 155.226 42.463 155.226 41.437C155.226 40.411 155.587 39.537 156.309 38.815C157.031 38.093 157.905 37.732 158.931 37.732C159.957 37.732 160.831 38.093 161.553 38.815C162.275 39.537 162.636 40.411 162.636 41.437ZM161.553 51.07V79H156.309V51.07H161.553ZM173.622 38.188V79H168.378V38.188H173.622ZM192.273 79.912C188.169 79.912 184.787 78.506 182.127 75.694C179.467 72.882 178.137 69.329 178.137 65.035C178.137 60.779 179.429 57.245 182.013 54.433C184.597 51.583 187.903 50.158 191.931 50.158C196.073 50.158 199.36 51.507 201.792 54.205C204.262 56.865 205.497 60.608 205.497 65.434L205.44 66.004H183.495C183.571 68.74 184.483 70.944 186.231 72.616C187.979 74.288 190.069 75.124 192.501 75.124C195.845 75.124 198.467 73.452 200.367 70.108L205.041 72.388C203.787 74.744 202.039 76.587 199.797 77.917C197.593 79.247 195.085 79.912 192.273 79.912ZM183.894 61.672H199.911C199.759 59.734 198.961 58.138 197.517 56.884C196.111 55.592 194.211 54.946 191.817 54.946C189.841 54.946 188.131 55.554 186.687 56.77C185.281 57.986 184.35 59.62 183.894 61.672ZM234.702 51.07L217.203 91.312H211.788L218.286 77.233L206.772 51.07H212.472L220.794 71.134H220.908L229.002 51.07H234.702ZM249.551 79.912C245.447 79.912 242.065 78.506 239.405 75.694C236.745 72.882 235.415 69.329 235.415 65.035C235.415 60.779 236.707 57.245 239.291 54.433C241.875 51.583 245.181 50.158 249.209 50.158C253.351 50.158 256.638 51.507 259.07 54.205C261.54 56.865 262.775 60.608 262.775 65.434L262.718 66.004H240.773C240.849 68.74 241.761 70.944 243.509 72.616C245.257 74.288 247.347 75.124 249.779 75.124C253.123 75.124 255.745 73.452 257.645 70.108L262.319 72.388C261.065 74.744 259.317 76.587 257.075 77.917C254.871 79.247 252.363 79.912 249.551 79.912ZM241.172 61.672H257.189C257.037 59.734 256.239 58.138 254.795 56.884C253.389 55.592 251.489 54.946 249.095 54.946C247.119 54.946 245.409 55.554 243.965 56.77C242.559 57.986 241.628 59.62 241.172 61.672Z" fill="#032826"/>
<path d="M72 24.5C92.7513 24.5 109.5 41.1058 109.5 61.5C109.5 81.8942 92.7513 98.5 72 98.5C51.2487 98.5 34.5 81.8942 34.5 61.5C34.5 41.1058 51.2487 24.5 72 24.5Z" stroke="#032826" stroke-width="7"/>
</svg>
