<svg width="138" height="120" viewBox="0 0 138 120" fill="none" xmlns="http://www.w3.org/2000/svg">
<path d="M52.1273 60.5259C52.1385 59.1459 52.3441 57.8276 52.7443 56.5707C53.1444 55.3139 53.7387 54.1637 54.5272 53.12C55.3156 52.0763 56.268 51.169 57.3842 50.398C58.5305 49.6272 59.8554 49.0229 61.359 48.585L63.5628 54.318C61.9395 54.7249 60.5836 55.449 59.4951 56.4902C58.4367 57.5317 57.9006 58.9074 57.8868 60.6174C57.8817 61.2474 57.9519 61.8479 58.0973 62.4191C58.2724 63.0206 58.5082 63.5475 58.8045 63.9999C59.1306 64.4825 59.5326 64.8608 60.0104 65.1347C60.4882 65.4085 61.0421 65.548 61.6721 65.5531C62.2721 65.5579 62.8129 65.4573 63.2946 65.2512C63.7763 65.045 64.2291 64.6887 64.6532 64.1821C65.0771 63.7055 65.4873 63.0638 65.8838 62.257C66.2801 61.4801 66.693 60.5084 67.1224 59.3418L67.8583 57.3677C68.1653 56.5002 68.5775 55.6185 69.0947 54.7226C69.6117 53.8568 70.2332 53.0667 70.959 52.3526C71.6848 51.6384 72.5295 51.0452 73.4933 50.573C74.4869 50.131 75.5987 49.9149 76.8287 49.9249C78.0886 49.935 79.2567 50.1845 80.3328 50.6732C81.4386 51.1921 82.3929 51.9048 83.1956 52.8113C84.0281 53.7481 84.6642 54.8482 85.104 56.1118C85.5736 57.4057 85.8021 58.8325 85.7895 60.3925C85.7764 62.0124 85.5402 63.4056 85.0808 64.5719C84.6511 65.7685 84.088 66.769 83.3915 67.5734C82.7247 68.408 81.9843 69.0771 81.1702 69.5805C80.3561 70.084 79.5881 70.4528 78.8662 70.687L76.6595 65.314C77.5619 65.0213 78.3763 64.4728 79.1029 63.6687C79.8291 62.8945 80.1978 61.8174 80.209 60.4375C80.2196 59.1175 79.9135 58.02 79.2905 57.145C78.6975 56.2701 77.9061 55.8287 76.9161 55.8208C75.9561 55.813 75.1278 56.2263 74.431 57.0607C73.7643 57.8954 73.1085 59.2251 72.4638 61.05L71.7725 63.0695C71.3121 64.3558 70.7776 65.5215 70.1692 66.5667C69.5905 67.642 68.8931 68.5514 68.0771 69.2949C67.2608 70.0683 66.3261 70.6458 65.273 71.0273C64.2497 71.4391 63.063 71.6395 61.7131 71.6286C60.0331 71.615 58.581 71.2583 57.3566 70.5584C56.1619 69.8888 55.1789 69.0258 54.4074 67.9695C53.6359 66.9133 53.0604 65.7236 52.6811 64.4005C52.3018 63.0774 52.1172 61.7859 52.1273 60.5259Z" fill="#0D9488"/>
<path d="M69.5 23C90.2513 23 107 39.6058 107 60C107 80.3942 90.2513 97 69.5 97C48.7487 97 32 80.3942 32 60C32 39.6058 48.7487 23 69.5 23Z" stroke="#032826" stroke-width="7"/>
</svg>
